<svg xmlns="http://www.w3.org/2000/svg" version="1.1" xmlns:xlink="http://www.w3.org/1999/xlink" viewBox="0 0 700 700" style="overflow: hidden; display: block;" width="700" height="700"><defs><linearGradient id="two-495" x1="350" y1="-350" x2="350" y2="350" spreadMethod="pad" gradientUnits="userSpaceOnUse"><stop offset="0%" stop-color="hsl(209, 100%, 34%)" stop-opacity="1"></stop><stop offset="100%" stop-color="#00417e" stop-opacity="1"></stop></linearGradient></defs><g id="two-0" transform="matrix(1 0 0 1 0 0)" opacity="1"><path transform="matrix(1 0 0 1 350 350)" id="two-494" d="M 213.202898 59.73665 C 241.123756 100.314468 326.81976 141.175987 299.036271 181.847985 C 266.91781 228.865907 174.190748 103.125129 131.453097 140.751899 C 95.361172 172.527689 189.44633 261.232938 147.950836 285.532154 C 111.355299 306.962019 85.002878 200.683842 43.714829 210.367309 C -2.267939 221.15185 23.852573 342.528761 -23.048969 336.963996 C -76.674511 330.601442 -12.465581 196.331258 -63.394135 178.373998 C -115.10752 160.140009 -150.114172 307.650245 -196.304047 278.099477 C -237.074861 252.015647 -158.958465 182.63886 -165.556228 134.689981 C -168.153763 115.812544 -178.407121 96.466008 -192.460859 83.597547 C -219.564213 58.780063 -285.155095 75.927793 -295.173911 40.57072 C -303.349872 11.71721 -253.079795 -5.334727 -242.233821 -33.294273 C -234.013817 -54.4844 -246.713485 -82.774429 -234.109232 -101.68799 C -220.568811 -122.006337 -181.167774 -116.493004 -169.657123 -138.026307 C -151.77397 -171.480833 -202.127529 -223.100908 -178.340111 -252.650377 C -160.716766 -274.542642 -121.184504 -257.355109 -94.004211 -264.502498 C -68.653006 -271.168906 -43.754713 -304.826674 -20.080859 -293.571756 C 28.090251 -270.670462 -23.103872 -150.963299 29.004111 -139.575449 C 77.089614 -129.066685 82.654377 -234.582598 129.452772 -249.832511 C 157.381543 -258.933492 204.797355 -258.857054 216.657642 -231.983691 C 241.050998 -176.712553 93.780699 -127.671165 122.901543 -74.738085 C 143.761917 -36.820094 239.289234 -111.868157 253.99639 -71.166452 C 266.090164 -37.69722 177.540151 -35.292907 172.972926 -0.000001 C 169.922733 23.570144 199.73065 40.157224 213.202898 59.73665 Z " fill="url(#two-495)" stroke="undefined" stroke-width="1" stroke-opacity="1" fill-opacity="1" visibility="visible" stroke-linecap="butt" stroke-linejoin="miter" stroke-miterlimit="4"></path></g></svg>