<svg id="visual" viewBox="0 0 900 900" width="900" height="900" xmlns="http://www.w3.org/2000/svg" xmlns:xlink="http://www.w3.org/1999/xlink" version="1.1"><path d="M827 900L798.5 878.5C770 857 713 814 698 771.2C683 728.3 710 685.7 696.5 642.8C683 600 629 557 632 514.2C635 471.3 695 428.7 696.5 385.8C698 343 641 300 609.5 257.2C578 214.3 572 171.7 575 128.8C578 86 590 43 596 21.5L602 0L900 0L900 21.5C900 43 900 86 900 128.8C900 171.7 900 214.3 900 257.2C900 300 900 343 900 385.8C900 428.7 900 471.3 900 514.2C900 557 900 600 900 642.8C900 685.7 900 728.3 900 771.2C900 814 900 857 900 878.5L900 900Z" fill="#3a76ba"></path><path d="M467 900L447.5 878.5C428 857 389 814 404 771.2C419 728.3 488 685.7 456.5 642.8C425 600 293 557 218 514.2C143 471.3 125 428.7 137 385.8C149 343 191 300 233 257.2C275 214.3 317 171.7 354.5 128.8C392 86 425 43 441.5 21.5L458 0L603 0L597 21.5C591 43 579 86 576 128.8C573 171.7 579 214.3 610.5 257.2C642 300 699 343 697.5 385.8C696 428.7 636 471.3 633 514.2C630 557 684 600 697.5 642.8C711 685.7 684 728.3 699 771.2C714 814 771 857 799.5 878.5L828 900Z" fill="#05529a"></path><path d="M0 900L0 878.5C0 857 0 814 0 771.2C0 728.3 0 685.7 0 642.8C0 600 0 557 0 514.2C0 471.3 0 428.7 0 385.8C0 343 0 300 0 257.2C0 214.3 0 171.7 0 128.8C0 86 0 43 0 21.5L0 0L459 0L442.5 21.5C426 43 393 86 355.5 128.8C318 171.7 276 214.3 234 257.2C192 300 150 343 138 385.8C126 428.7 144 471.3 219 514.2C294 557 426 600 457.5 642.8C489 685.7 420 728.3 405 771.2C390 814 429 857 448.5 878.5L468 900Z" fill="#003d71"></path></svg>