<svg id="visual" viewBox="0 0 960 540" width="960" height="540" xmlns="http://www.w3.org/2000/svg" xmlns:xlink="http://www.w3.org/1999/xlink" version="1.1"><rect x="0" y="0" width="960" height="540" fill="#ffffff"></rect><path d="M0 358L22.8 350.7C45.7 343.3 91.3 328.7 137 322.3C182.7 316 228.3 318 274 332.7C319.7 347.3 365.3 374.7 411.2 386.5C457 398.3 503 394.7 548.8 385.8C594.7 377 640.3 363 686 357.8C731.7 352.7 777.3 356.3 823 359.8C868.7 363.3 914.3 366.7 937.2 368.3L960 370L960 541L937.2 541C914.3 541 868.7 541 823 541C777.3 541 731.7 541 686 541C640.3 541 594.7 541 548.8 541C503 541 457 541 411.2 541C365.3 541 319.7 541 274 541C228.3 541 182.7 541 137 541C91.3 541 45.7 541 22.8 541L0 541Z" fill="#3a76ba"></path><path d="M0 383L22.8 384C45.7 385 91.3 387 137 391.3C182.7 395.7 228.3 402.3 274 399.5C319.7 396.7 365.3 384.3 411.2 386.7C457 389 503 406 548.8 407.3C594.7 408.7 640.3 394.3 686 383.2C731.7 372 777.3 364 823 370.8C868.7 377.7 914.3 399.3 937.2 410.2L960 421L960 541L937.2 541C914.3 541 868.7 541 823 541C777.3 541 731.7 541 686 541C640.3 541 594.7 541 548.8 541C503 541 457 541 411.2 541C365.3 541 319.7 541 274 541C228.3 541 182.7 541 137 541C91.3 541 45.7 541 22.8 541L0 541Z" fill="#2e67a7"></path><path d="M0 417L22.8 420.5C45.7 424 91.3 431 137 435.5C182.7 440 228.3 442 274 441.8C319.7 441.7 365.3 439.3 411.2 441.7C457 444 503 451 548.8 453.3C594.7 455.7 640.3 453.3 686 453.7C731.7 454 777.3 457 823 457C868.7 457 914.3 454 937.2 452.5L960 451L960 541L937.2 541C914.3 541 868.7 541 823 541C777.3 541 731.7 541 686 541C640.3 541 594.7 541 548.8 541C503 541 457 541 411.2 541C365.3 541 319.7 541 274 541C228.3 541 182.7 541 137 541C91.3 541 45.7 541 22.8 541L0 541Z" fill="#215995"></path><path d="M0 457L22.8 457.5C45.7 458 91.3 459 137 461.5C182.7 464 228.3 468 274 467.8C319.7 467.7 365.3 463.3 411.2 463.5C457 463.7 503 468.3 548.8 471.5C594.7 474.7 640.3 476.3 686 470.3C731.7 464.3 777.3 450.7 823 444C868.7 437.3 914.3 437.7 937.2 437.8L960 438L960 541L937.2 541C914.3 541 868.7 541 823 541C777.3 541 731.7 541 686 541C640.3 541 594.7 541 548.8 541C503 541 457 541 411.2 541C365.3 541 319.7 541 274 541C228.3 541 182.7 541 137 541C91.3 541 45.7 541 22.8 541L0 541Z" fill="#124b83"></path><path d="M0 480L22.8 481.3C45.7 482.7 91.3 485.3 137 485C182.7 484.7 228.3 481.3 274 483.3C319.7 485.3 365.3 492.7 411.2 498.2C457 503.7 503 507.3 548.8 504.7C594.7 502 640.3 493 686 486.5C731.7 480 777.3 476 823 475.5C868.7 475 914.3 478 937.2 479.5L960 481L960 541L937.2 541C914.3 541 868.7 541 823 541C777.3 541 731.7 541 686 541C640.3 541 594.7 541 548.8 541C503 541 457 541 411.2 541C365.3 541 319.7 541 274 541C228.3 541 182.7 541 137 541C91.3 541 45.7 541 22.8 541L0 541Z" fill="#003d71"></path></svg>