<svg id="visual" viewBox="0 0 960 540" width="960" height="540" xmlns="http://www.w3.org/2000/svg" xmlns:xlink="http://www.w3.org/1999/xlink" version="1.1"><rect x="0" y="0" width="960" height="540" fill="#ffffff"></rect><defs><linearGradient id="grad1_0" x1="43.8%" y1="0%" x2="100%" y2="100%"><stop offset="14.444444444444446%" stop-color="#ffffff" stop-opacity="1"></stop><stop offset="85.55555555555554%" stop-color="#ffffff" stop-opacity="1"></stop></linearGradient></defs><defs><linearGradient id="grad2_0" x1="0%" y1="0%" x2="56.3%" y2="100%"><stop offset="14.444444444444446%" stop-color="#ffffff" stop-opacity="1"></stop><stop offset="85.55555555555554%" stop-color="#ffffff" stop-opacity="1"></stop></linearGradient></defs><g transform="translate(960, 0)"><path d="M0 486C-49.2 447.7 -98.5 409.4 -162.6 392.6C-226.8 375.9 -305.9 380.7 -343.7 343.7C-381.4 306.6 -377.7 227.7 -394.5 163.4C-411.3 99.2 -448.7 49.6 -486 0L0 0Z" fill="#003d71"></path></g><g transform="translate(0, 540)"><path d="M0 -486C45.6 -438.8 91.1 -391.6 155.8 -376C220.4 -360.4 304 -376.5 343.7 -343.7C383.3 -310.8 379 -229.2 395.4 -163.8C411.8 -98.4 448.9 -49.2 486 0L0 0Z" fill="#003d71"></path></g></svg>